# Blender 4.0.2
# www.blender.org
mtllib spear.mtl
o Cube.002
v 0.985442 -0.706764 0.014282
v 0.985442 1.096427 0.014282
v 0.985718 -0.706764 -0.014074
v 0.985718 1.096427 -0.014074
v 1.014351 -0.706764 0.014558
v 1.014351 1.096427 0.014558
v 1.014351 -0.706764 -0.014627
v 1.014351 1.096427 -0.014627
v 1.000035 -0.706764 -0.020982
v 1.000035 1.096427 -0.020982
v 1.000035 -0.706764 0.020913
v 1.000035 1.096427 0.020913
v 0.979088 -0.706764 -0.000035
v 0.979088 1.096427 -0.000035
v 1.020982 -0.706764 -0.000035
v 1.020982 1.096427 -0.000035
v 0.956604 1.136728 -0.000069
v 1.000035 -0.706764 -0.000035
v 0.956604 1.096427 -0.000069
v 0.970363 1.096427 -0.029201
v 1.000069 1.096427 -0.043533
v 1.029774 1.096427 -0.030347
v 1.043533 1.096427 -0.000069
v 1.029774 1.096427 0.030210
v 1.000069 1.096427 0.043396
v 0.969790 1.096427 0.029637
v 0.970285 1.136728 -0.000048
v 0.970363 1.136728 -0.029201
v 1.000069 1.136728 -0.043533
v 1.029774 1.136728 -0.030347
v 1.043533 1.136728 -0.000069
v 1.029774 1.136728 0.030210
v 1.000069 1.136728 0.043396
v 0.969790 1.136728 0.029637
v 0.979707 1.136728 -0.019997
v 1.000048 1.136728 -0.029812
v 1.020390 1.136728 -0.020782
v 1.029812 1.136728 -0.000048
v 1.020390 1.136728 0.020686
v 1.000048 1.136728 0.029715
v 0.979314 1.136728 0.020293
v 1.000005 1.547842 -0.000005
v 0.954126 1.270729 -0.000072
v 0.968671 1.270729 -0.030868
v 1.000072 1.270729 -0.046018
v 1.031474 1.270729 -0.032080
v 1.046018 1.270729 -0.000072
v 1.031474 1.270729 0.031935
v 1.000072 1.270729 0.045874
v 0.968065 1.270729 0.031329
v 0.985442 0.137421 0.014282
v 0.985718 0.137421 -0.014074
v 1.014351 0.137421 -0.014627
v 1.014351 0.137421 0.014558
v 1.000035 0.137421 0.020913
v 1.000035 0.137421 -0.020982
v 1.020982 0.137421 -0.000035
v 0.979088 0.137421 -0.000035
v 0.985718 -0.137421 -0.014074
v 1.014351 -0.137421 -0.014627
v 1.014351 -0.137421 0.014558
v 1.000035 -0.137421 0.020913
v 1.000035 -0.137421 -0.020982
v 1.020982 -0.137421 -0.000035
v 0.979088 -0.137421 -0.000035
v 0.985442 -0.137421 0.014282
v 0.985442 0.475265 0.014282
v 0.985718 0.475265 -0.014074
v 1.014351 0.475265 -0.014627
v 1.014351 0.475265 0.014558
v 1.000035 0.475265 0.020913
v 1.000035 0.475265 -0.020982
v 1.020982 0.475265 -0.000035
v 0.979088 0.475265 -0.000035
v 0.985442 0.719434 0.014282
v 0.985718 0.719434 -0.014074
v 1.014351 0.719434 -0.014627
v 1.014351 0.719434 0.014558
v 1.000035 0.719434 0.020913
v 1.000035 0.719434 -0.020982
v 1.020982 0.719434 -0.000035
v 0.979088 0.719434 -0.000035
vn -0.9999 -0.0000 -0.0117
vn -0.5810 -0.8139 -0.0068
vn -0.4349 -0.7904 -0.4314
vn -0.7100 -0.0000 -0.7042
vn -0.0159 -0.0000 -0.9999
vn -0.0092 -0.8150 -0.5795
vn 0.4257 -0.7965 -0.4294
vn 0.7040 -0.0000 -0.7102
vn 1.0000 -0.0000 -0.0000
vn 0.5822 -0.8131 -0.0000
vn 0.4257 -0.7965 0.4294
vn 0.7040 -0.0000 0.7102
vn -0.0044 -0.0000 1.0000
vn -0.0026 -0.8119 0.5838
vn -0.4294 -0.7965 0.4257
vn -0.7102 -0.0000 0.7040
vn -0.0000 -1.0000 -0.0000
vn 0.7808 -0.6248 -0.0000
vn 0.5437 -0.6352 0.5485
vn -0.0034 -0.6255 0.7802
vn -0.5485 -0.6352 0.5437
vn -0.7811 -0.6243 -0.0092
vn -0.5461 -0.6392 -0.5415
vn -0.0124 -0.6236 -0.7816
vn 0.5437 -0.6352 -0.5485
vn -0.0124 0.6236 -0.7816
vn 0.5437 0.6352 -0.5485
vn -0.0034 0.6255 0.7802
vn -0.5485 0.6352 0.5437
vn 0.5437 0.6352 0.5485
vn -0.7811 0.6243 -0.0092
vn 0.4567 0.7610 0.4607
vn -0.0029 0.7775 0.6289
vn -0.4606 0.7611 0.4567
vn -0.6261 0.7797 -0.0076
vn -0.5461 0.6392 -0.5415
vn -0.4655 0.7550 -0.4618
vn 0.7808 0.6248 -0.0000
vn 0.6274 0.7787 -0.0000
vn 0.4568 0.7610 -0.4607
vn -0.0103 0.7808 -0.6247
vn -0.0153 0.0213 -0.9997
vn 0.7037 0.0209 -0.7102
vn -0.0042 0.0213 0.9998
vn -0.7102 0.0209 0.7037
vn 0.7038 0.0209 0.7101
vn -0.9997 0.0212 -0.0114
vn -0.0006 1.0000 -0.0003
vn -0.7099 0.0206 -0.7040
vn 0.9998 0.0213 -0.0001
vt 0.147265 0.605856
vt 0.147265 0.984698
vt 0.131662 0.984698
vt 0.131662 0.605856
vt 0.115689 0.605856
vt 0.115689 0.984698
vt 0.099949 0.984698
vt 0.099949 0.605856
vt 0.083842 0.605856
vt 0.083842 0.984698
vt 0.067735 0.984698
vt 0.067735 0.605856
vt 0.179112 0.605856
vt 0.179112 0.984698
vt 0.163005 0.984698
vt 0.163005 0.605856
vt 0.291426 0.019323
vt 0.308621 0.038373
vt 0.291241 0.041923
vt 0.274221 0.038348
vt 0.839894 0.047088
vt 0.873273 0.021743
vt 0.924452 0.058455
vt 0.857634 0.089653
vt 0.760385 0.064117
vt 0.799067 0.053040
vt 0.808981 0.102351
vt 0.764105 0.106478
vt 0.377147 0.038345
vt 0.394137 0.019127
vt 0.411545 0.037982
vt 0.394206 0.041728
vt 0.051995 0.984698
vt 0.051995 0.605856
vt 0.360323 0.041688
vt 0.343024 0.038422
vt 0.360091 0.019575
vt 0.719213 0.059555
vt 0.718496 0.109341
vt 0.572073 0.021742
vt 0.601008 0.045493
vt 0.582102 0.084753
vt 0.525247 0.054076
vt 0.326049 0.041960
vt 0.325900 0.019358
vt 0.675339 0.106434
vt 0.722574 0.163287
vt 0.674655 0.163132
vt 0.941241 0.154442
vt 0.874727 0.154864
vt 0.570138 0.150809
vt 0.501668 0.146516
vt 0.821372 0.158347
vt 0.679291 0.064613
vt 0.641077 0.052534
vt 0.629667 0.100028
vt 0.568598 0.175908
vt 0.515948 0.178159
vt 0.875269 0.179472
vt 0.823419 0.186818
vt 0.771869 0.164423
vt 0.772795 0.185842
vt 0.624947 0.156783
vt 0.621657 0.185292
vt 0.673314 0.184627
vt 0.722620 0.190579
vt 0.719820 0.462851
vt 0.663958 0.463312
vt 0.926919 0.183590
vt 0.963882 0.484234
vt 0.893413 0.474654
vt 0.543347 0.472073
vt 0.474010 0.480398
vt 0.832924 0.468396
vt 0.715724 0.960468
vt 0.776438 0.464329
vt 0.605639 0.466594
vt 0.398168 0.659493
vt 0.398924 0.978834
vt 0.380726 0.978836
vt 0.380561 0.659556
vt 0.325434 0.659683
vt 0.326020 0.978840
vt 0.307401 0.978841
vt 0.307421 0.659696
vt 0.362050 0.659617
vt 0.362684 0.978837
vt 0.344218 0.978840
vt 0.344187 0.659662
vt 0.288228 0.659680
vt 0.288781 0.978837
vt 0.270587 0.978836
vt 0.270623 0.659661
vt 0.417370 0.659390
vt 0.417550 0.978832
vt 0.163000 0.020986
vt 0.163005 0.360489
vt 0.147265 0.360489
vt 0.147259 0.020988
vt 0.099942 0.020992
vt 0.099949 0.360489
vt 0.083842 0.360489
vt 0.083837 0.020992
vt 0.131654 0.020989
vt 0.131662 0.360489
vt 0.115689 0.360489
vt 0.115682 0.020992
vt 0.067731 0.020989
vt 0.067735 0.360489
vt 0.051995 0.360489
vt 0.051995 0.020989
vt 0.179111 0.020985
vt 0.179112 0.360489
s 1
usemtl wood
f 82/1/1 14/2/2 4/3/3 76/4/4
f 80/5/5 10/6/6 8/7/7 77/8/8
f 81/9/9 16/10/10 6/11/11 78/12/12
f 79/13/13 12/14/14 2/15/15 75/16/16
f 18/17/17 15/18/18 5/19/19 11/20/20
f 13/29/22 18/30/17 11/31/20 1/32/21
f 78/12/12 6/11/11 12/33/14 79/34/13
f 76/4/4 4/3/3 10/6/6 80/5/5
f 3/35/23 9/36/24 18/37/17 13/29/22
f 9/36/24 7/44/25 15/18/18 18/45/17
f 77/8/8 8/7/7 16/10/10 81/9/9
f 75/16/16 2/15/15 14/2/2 82/1/1
f 66/78/16 51/79/16 58/80/1 65/81/1
f 60/82/8 53/83/8 57/84/9 64/85/9
f 59/86/4 52/87/4 56/88/5 63/89/5
f 61/90/12 54/91/12 55/92/13 62/93/13
f 62/94/13 55/95/13 51/79/16 66/78/16
f 64/85/9 57/84/9 54/91/12 61/90/12
f 63/89/5 56/88/5 53/83/8 60/82/8
f 65/81/1 58/80/1 52/87/4 59/86/4
f 13/29/22 65/81/1 59/86/4 3/35/23
f 9/36/24 63/89/5 60/82/8 7/44/25
f 15/18/18 64/85/9 61/90/12 5/19/19
f 11/31/20 62/94/13 66/78/16 1/32/21
f 5/19/19 61/90/12 62/93/13 11/20/20
f 3/35/23 59/86/4 63/89/5 9/36/24
f 7/44/25 60/82/8 64/85/9 15/18/18
f 1/32/21 66/78/16 65/81/1 13/29/22
f 51/96/16 67/97/16 74/98/1 58/99/1
f 53/100/8 69/101/8 73/102/9 57/103/9
f 52/104/4 68/105/4 72/106/5 56/107/5
f 54/108/12 70/109/12 71/110/13 55/111/13
f 55/112/13 71/113/13 67/97/16 51/96/16
f 57/103/9 73/102/9 70/109/12 54/108/12
f 56/107/5 72/106/5 69/101/8 53/100/8
f 58/99/1 74/98/1 68/105/4 52/104/4
f 67/97/16 75/16/16 82/1/1 74/98/1
f 69/101/8 77/8/8 81/9/9 73/102/9
f 68/105/4 76/4/4 80/5/5 72/106/5
f 70/109/12 78/12/12 79/34/13 71/110/13
f 71/113/13 79/13/13 75/16/16 67/97/16
f 73/102/9 81/9/9 78/12/12 70/109/12
f 72/106/5 80/5/5 77/8/8 69/101/8
f 74/98/1 82/1/1 76/4/4 68/105/4
usemtl comb
f 2/21/15 12/22/14 25/23/20 26/24/21
f 4/25/3 14/26/2 19/27/22 20/28/23
f 10/38/6 4/25/3 20/28/23 21/39/24
f 12/40/14 6/41/11 24/42/19 25/43/20
f 22/46/25 21/39/24 29/47/26 30/48/27
f 26/24/21 25/23/20 33/49/28 34/50/29
f 25/43/20 24/42/19 32/51/30 33/52/28
f 19/27/22 26/24/21 34/50/29 17/53/31
f 8/54/7 10/38/6 21/39/24 22/46/25
f 16/55/10 8/54/7 22/46/25 23/56/18
f 14/26/2 2/21/15 26/24/21 19/27/22
f 6/41/11 16/55/10 23/56/18 24/42/19
f 33/52/28 32/51/30 39/57/32 40/58/33
f 17/53/31 34/50/29 41/59/34 27/60/35
f 28/61/36 17/53/31 27/60/35 35/62/37
f 32/51/30 31/63/38 38/64/39 39/57/32
f 23/56/18 22/46/25 30/48/27 31/63/38
f 21/39/24 20/28/23 28/61/36 29/47/26
f 24/42/19 23/56/18 31/63/38 32/51/30
f 20/28/23 19/27/22 17/53/31 28/61/36
f 37/65/40 36/66/41 45/67/42 46/68/43
f 41/59/34 40/69/33 49/70/44 50/71/45
f 40/58/33 39/57/32 48/72/46 49/73/44
f 27/60/35 41/59/34 50/71/45 43/74/47
f 34/50/29 33/49/28 40/69/33 41/59/34
f 30/48/27 29/47/26 36/66/41 37/65/40
f 31/63/38 30/48/27 37/65/40 38/64/39
f 29/47/26 28/61/36 35/62/37 36/66/41
f 49/73/44 48/72/46 42/75/48
f 43/74/47 50/71/45 42/75/48
f 44/76/49 43/74/47 42/75/48
f 48/72/46 47/77/50 42/75/48
f 38/64/39 37/65/40 46/68/43 47/77/50
f 36/66/41 35/62/37 44/76/49 45/67/42
f 39/57/32 38/64/39 47/77/50 48/72/46
f 35/62/37 27/60/35 43/74/47 44/76/49
f 50/71/45 49/70/44 42/75/48
f 46/68/43 45/67/42 42/75/48
f 47/77/50 46/68/43 42/75/48
f 45/67/42 44/76/49 42/75/48
